Coordinates
version=1
nRows=17
nColumns=36
inDegrees=yes

Units are S.I. units (second, meters, Newtons, ...)
If the header above contains a line with 'inDegrees', this indicates whether rotational values are in degrees (yes) or radians (no).

endheader
time	pelvis_tilt	pelvis_list	pelvis_rotation	pelvis_tx	pelvis_ty	pelvis_tz	hip_flexion_r	hip_adduction_r	hip_rotation_r	knee_angle_r	knee_angle_r_beta	ankle_angle_r	subtalar_angle_r	mtp_angle_r	hip_flexion_l	hip_adduction_l	hip_rotation_l	knee_angle_l	knee_angle_l_beta	ankle_angle_l	subtalar_angle_l	mtp_angle_l	lumbar_extension	lumbar_bending	lumbar_rotation	arm_flex_r	arm_add_r	arm_rot_r	elbow_flex_r	pro_sup_r	arm_flex_l	arm_add_l	arm_rot_l	elbow_flex_l	pro_sup_l
     26.98333330	      2.28273741	     -0.41909003	     -1.35125193	      0.46548890	      1.06321290	      0.82624545	     21.69184537	     -0.83048780	      0.03632039	     36.89027039	      0.64385668	      4.35395381	     -8.88421609	     -7.49999987	     -0.21243360	      0.62662916	     -0.96774903	     17.38942180	      0.30350267	     11.91274787	     -4.81771744	     -7.49999987	    -20.41295268	      3.10455802	     -0.75472744	      2.28011896	     -9.58021872	     -7.93191333	     18.71747282	     76.26555739	     15.69570269	    -13.89746856	     -6.17936966	     44.60431741	     73.98173656
     27.00000000	      2.26426321	     -0.71407858	     -1.68971998	      0.46230520	      1.06428044	      0.82662791	     22.18515717	     -0.41408140	     -0.22212181	     31.84873100	      0.55586522	      4.80554595	     -7.23559062	     -7.49999987	     -1.71198456	      0.37968522	     -0.65598406	     16.22586734	      0.28319481	     13.24476335	     -4.12551858	     -7.49999987	    -20.65412148	      3.19461530	     -0.89501829	      2.26418756	     -9.44802184	     -8.36414033	     18.63906125	     76.30168629	     16.24736896	    -14.38472335	     -6.84555490	     46.62625003	     73.77759478
     27.01666670	      2.28757199	     -0.82747401	     -1.86804392	      0.45923556	      1.06427013	      0.82562862	     22.66742354	     -0.27387257	     -0.56065526	     26.93327405	      0.47007431	      4.85798518	     -5.62799380	     -7.49999987	     -3.15257194	      0.41146970	     -0.24768825	     14.88318101	      0.25976051	     14.43265679	     -3.58056610	     -7.49999987	    -20.94664546	      3.15612517	     -1.02464373	      2.20839833	     -9.25315001	     -8.88115510	     18.47174080	     76.43337797	     17.02846071	    -14.75692146	     -7.12124622	     48.45389013	     73.73109573
     27.03333330	      2.34715425	     -0.76343608	     -1.91275569	      0.45693339	      1.06234597	      0.82493822	     23.06826514	     -0.40631087	     -1.10648371	     22.25154855	      0.38836279	      4.76168496	     -3.81634056	     -7.49999987	     -4.59786130	      0.66452901	      0.10084301	     13.44643679	      0.23468459	     15.32787966	     -2.96401357	     -7.49999987	    -21.12820513	      3.05849909	     -1.24330205	      2.06653883	     -9.00218550	     -9.41223053	     18.00308965	     76.35629676	     17.86159283	    -15.00140586	     -7.16516226	     49.92439875	     73.51067069
     27.05000000	      2.41141548	     -0.54884959	     -1.93442415	      0.45412587	      1.05883722	      0.82638709	     23.47719426	     -0.66464628	     -1.65578574	     18.01394644	      0.31440268	      4.72135885	     -2.18588173	     -7.49999987	     -5.99097061	      1.06190408	      0.48453829	     12.17628692	      0.21251630	     15.90373699	     -2.47612349	     -7.49999987	    -21.21947486	      2.87054174	     -1.74007242	      2.12035394	     -8.65113511	     -9.85408832	     17.19188685	     76.01942866	     18.44795737	    -15.33064811	     -7.26152926	     51.27586415	     72.78161225
     27.06666670	      2.41797477	     -0.39105961	     -2.03528978	      0.45007608	      1.05484039	      0.82983993	     24.02308005	     -0.77194200	     -2.22342758	     14.43929239	      0.25201319	      4.86715820	     -0.64419796	     -7.49999987	     -7.20202283	      1.31432678	      0.69935679	     11.38634548	      0.19872922	     16.25188607	     -2.15527137	     -7.49999987	    -21.22834283	      2.73529782	     -2.03769943	      2.15920753	     -8.31032424	    -10.06409374	     16.30077717	     76.11490091	     19.16624903	    -15.59524300	     -7.18820927	     51.85894642	     72.38333298
     27.08333330	      2.21063716	     -0.36276554	     -2.27063708	      0.44631221	      1.05096633	      0.83339340	     24.94212294	     -0.61764597	     -2.65975027	     11.84421994	      0.20672064	      5.11687904	      0.33022869	     -7.49999987	     -8.02830928	      1.30621851	      0.59588539	     11.24911257	      0.19633405	     16.37596558	     -1.97058389	     -7.49999987	    -20.99280824	      2.71947972	     -2.36032561	      2.45248008	     -7.94578365	     -9.98116660	     15.12763469	     75.48844007	     19.67588933	    -15.94679997	     -7.08670972	     52.13860253	     71.46602197
     27.10000000	      2.05598129	     -0.72271506	     -2.72978744	      0.44526288	      1.04759066	      0.83553859	     25.86527359	      0.01939210	     -3.07976964	     10.37419268	      0.18106382	      5.52813202	      0.75446316	     -7.49999987	     -8.84922636	      0.80065441	      0.02609953	     11.74934946	      0.20506483	     16.15598745	     -2.02465429	     -7.49999987	    -20.75633324	      3.04898803	     -2.22068757	      2.60583844	     -7.70450426	    -10.35622152	     14.35808192	     76.14269394	     20.18647719	    -16.02138478	     -7.03497839	     52.03109317	     71.80237082
     27.11666670	      1.70718099	     -1.39799751	     -3.43515566	      0.44744057	      1.04312636	      0.83667907	     27.02319097	      1.09929896	     -3.25406609	     10.16719317	      0.17745100	      6.05718892	      0.39905137	     -7.49999987	     -9.44878552	     -0.11113308	     -1.17559352	     12.88072764	      0.22481111	     15.63591733	     -2.20463537	     -7.49999987	    -20.14246850	      3.71619311	     -2.16374839	      2.94370630	     -7.57098884	    -10.55923865	     13.53028900	     75.73026344	     20.12017290	    -16.01672456	     -7.34365075	     52.04208437	     71.25793075
     27.13333330	      1.28268581	     -2.45574436	     -4.06270915	      0.45070881	      1.03761124	      0.83767854	     28.16693008	      2.53855762	     -3.60361261	     11.18280462	      0.19517676	      6.25465575	     -0.58864611	     -7.49999987	    -10.01471273	     -1.49866912	     -2.58101624	     14.46427372	      0.25244920	     14.53031615	     -2.81383544	     -7.49999987	    -19.43765016	      4.79448091	     -1.89602267	      3.22372845	     -7.63489997	    -10.61919484	     12.59911248	     76.11559852	     19.98066996	    -15.68485954	     -7.76849780	     52.12235835	     71.34040844
     27.15000000	      0.73761715	     -3.55430439	     -4.63093515	      0.45190968	      1.03372566	      0.83920506	     29.26887295	      4.09008128	     -3.57203266	     13.04073312	      0.22760373	      5.30225361	     -2.75178762	     -7.49999987	    -10.40177581	     -3.01457136	     -4.32931668	     16.40895207	      0.28639024	     12.73271059	     -3.35019662	     -7.49999987	    -18.78297391	      5.95457202	     -1.75894056	      3.42136727	     -7.85662951	    -10.18367202	     12.16828619	     76.81518840	     19.42860792	    -15.38077294	     -8.38044703	     52.86004753	     71.47549801
     27.16666670	      0.36907247	     -4.41913985	     -4.80143091	      0.45103425	      1.03131629	      0.84047817	     29.99874073	      5.26191660	     -3.66837851	     15.19521609	      0.26520655	      3.38448491	     -5.13504457	     -7.49999987	    -10.92189307	     -4.28616150	     -5.56891596	     18.23989471	      0.31834622	      9.95889848	     -4.54489627	     -7.49999987	    -18.49732661	      6.85036384	     -1.55243884	      3.59083891	     -7.97967815	    -11.60414279	     11.70656430	     82.00285541	     19.22676149	    -14.84818061	     -8.97609164	     53.35977405	     74.19074203
     27.18333330	      0.04643427	     -4.95380848	     -4.81496860	      0.45115297	      1.02754998	      0.84130163	     30.54230686	      6.06580101	     -3.55954540	     17.31115732	      0.30213669	      0.94763915	     -7.51150038	     -7.49999987	    -11.45898062	     -5.16226420	     -6.54341743	     19.72415116	      0.34425138	      6.47032345	     -6.03441665	     -7.49999987	    -18.21716346	      7.38199826	     -1.13223734	      3.67214030	     -8.12586692	    -11.20211546	     11.22133821	     82.00910800	     19.21981869	    -14.36051532	     -8.29347475	     53.24848116	     74.10197340
     27.20000000	     -0.15491080	     -5.30060850	     -4.63161274	      0.45306894	      1.02310978	      0.84210835	     30.79909057	      6.57713881	     -3.45434498	     19.16801842	      0.33454503	     -1.35797151	     -9.56125732	     -7.49999987	    -11.98396759	     -5.81142322	     -7.17007611	     20.94989949	      0.36564472	      2.63098700	     -7.69284496	     -7.49999987	    -17.99543539	      7.72731509	     -0.55974544	      3.50792481	     -8.28942046	    -10.61273673	     11.36737819	     81.90195274	     19.24355759	    -13.64944098	     -7.44705009	     52.64443017	     74.03233604
     27.21666670	     -0.24790499	     -5.45069675	     -4.35999671	      0.45491012	      1.01835735	      0.84381621	     30.86493232	      6.81317784	     -3.40036697	     20.77856136	      0.36265431	     -2.97171388	    -10.97856892	     -7.49999987	    -12.34970552	     -6.27488146	     -7.64626376	     22.05930751	      0.38500755	     -0.89756845	     -9.14598791	     -7.49999987	    -17.84944303	      7.86562316	     -0.02539791	      3.39921149	     -8.46928425	    -10.05783084	     12.10029967	     81.71896959	     19.15879873	    -12.96499091	     -6.43641344	     51.76111936	     73.97868919
     27.23333330	     -0.26009309	     -5.38502327	     -4.00795909	      0.45494116	      1.01703883	      0.84586640	     30.71840580	      6.79718829	     -3.24664534	     22.00714678	      0.38409717	     -4.02605057	    -12.09354830	     -7.49999987	    -12.35636733	     -6.55110793	     -7.82949241	     23.26325392	      0.40602038	     -4.34909285	    -10.48130701	     -7.49999987	    -17.82794280	      7.75702202	      0.56984847	      3.27632898	     -8.68694843	     -9.69834426	     13.39912340	     81.05466979	     19.18917865	    -12.37812786	     -5.09924489	     50.51807553	     73.71337879
     27.25000000	     -0.21144190	     -5.23435417	     -3.67436053	      0.45540537	      1.02019608	      0.84711398	     30.26612598	      6.70284962	     -3.02662582	     22.74206849	      0.39692397	     -4.73291642	    -12.95079083	     -7.49999987	    -12.14032220	     -6.74088641	     -7.94238134	     24.49269056	      0.42747809	     -7.88529974	    -11.45797275	     -7.49999987	    -17.90999492	      7.64573953	      0.53368925	      3.84905293	     -8.86001471	     -9.61098483	     14.16630869	     81.15681702	     18.69842167	    -12.01893888	     -4.70521663	     49.37711838	     73.80721458
